<?xml version="1.0" encoding="UTF-8"?> <svg xmlns="http://www.w3.org/2000/svg" width="160" height="256" viewBox="0 0 160 256" fill="none"><path d="M102.577 26.6565L82.7555 69.7393H89.1342L93.5642 60.118H111.589L116.004 69.7393H122.398L102.577 26.6565ZM96.2436 54.3178L102.577 40.6166L108.91 54.3939L96.2436 54.3178Z" fill="#45ad91"></path><path d="M35.1817 113.081H50.2531V149.191H56.0533V113.081H71.1246V107.281H35.1817V113.081Z" fill="#45ad91"></path><path d="M102.775 106.778C98.517 106.778 94.3552 108.041 90.8152 110.406C87.2752 112.771 84.5162 116.133 82.8869 120.067C81.2577 124 80.8314 128.328 81.662 132.504C82.4926 136.68 84.5427 140.515 87.5532 143.526C90.5637 146.536 94.3993 148.586 98.575 149.417C102.751 150.248 107.079 149.821 111.012 148.192C114.946 146.563 118.308 143.804 120.673 140.264C123.038 136.724 124.301 132.562 124.301 128.304C124.301 122.595 122.033 117.12 117.996 113.083C113.959 109.046 108.484 106.778 102.775 106.778ZM102.775 144.198C99.6344 144.183 96.569 143.238 93.9654 141.482C91.3618 139.727 89.3365 137.24 88.1453 134.334C86.954 131.429 86.6501 128.235 87.2719 125.157C87.8937 122.079 89.4134 119.255 91.6391 117.039C93.8649 114.824 96.6969 113.318 99.7779 112.711C102.859 112.104 106.051 112.423 108.95 113.628C111.85 114.833 114.328 116.871 116.071 119.483C117.814 122.094 118.744 125.164 118.744 128.304C118.746 130.399 118.334 132.472 117.531 134.407C116.728 136.341 115.551 138.097 114.067 139.574C112.582 141.052 110.82 142.221 108.882 143.014C106.944 143.808 104.869 144.21 102.775 144.198Z" fill="#45ad91"></path><path d="M113.294 192.107V186.687H92.5899V192.107H100.156V223.117H92.5899V228.552H113.294V223.117H105.956V192.107H113.294Z" fill="#45ad91"></path><path d="M66.3292 207.33C67.7295 205.384 68.5659 203.09 68.7464 200.7C68.9269 198.309 68.4445 195.915 67.3524 193.781C66.2602 191.647 64.6005 189.856 62.556 188.604C60.5115 187.353 58.1613 186.689 55.764 186.687H42.5043V228.552H48.3045V212.765H54.6679L62.2797 228.567H68.7193L61.1075 212.765L60.6508 211.806C62.925 210.874 64.8923 209.324 66.3292 207.33ZM63.3911 199.718C63.3915 201.711 62.6104 203.624 61.2157 205.048C59.821 206.471 57.9238 207.29 55.9315 207.33H48.3197V192.107H55.9315C57.9238 192.146 59.821 192.966 61.2157 194.389C62.6104 195.812 63.3915 197.726 63.3911 199.718Z" fill="#45ad91"></path><path d="M151.109 255.467H8.89058C6.54177 255.463 4.28962 254.532 2.62448 252.875C0.959342 251.218 0.016057 248.971 0 246.622V8.89058C0.0040251 6.53389 0.942001 4.27487 2.60844 2.60844C4.27487 0.942001 6.53389 0.0040251 8.89058 0H151.109C153.466 0.0040251 155.725 0.942001 157.392 2.60844C159.058 4.27487 159.996 6.53389 160 8.89058V246.622C159.984 248.971 159.041 251.218 157.376 252.875C155.71 254.532 153.458 255.463 151.109 255.467ZM8.89058 4.99334C7.85697 4.99334 6.86569 5.40394 6.13482 6.13481C5.40394 6.86569 4.99334 7.85697 4.99334 8.89058V246.622C4.99334 247.656 5.40394 248.647 6.13482 249.378C6.86569 250.109 7.85697 250.52 8.89058 250.52H151.109C152.143 250.52 153.134 250.109 153.865 249.378C154.596 248.647 155.007 247.656 155.007 246.622V8.89058C155.007 7.85697 154.596 6.86569 153.865 6.13481C153.134 5.40394 152.143 4.99334 151.109 4.99334H8.89058Z" fill="#45ad91"></path><path d="M40.8601 67.1056C46.1884 71.7488 55.4291 71.7488 60.3159 67.7146C61.807 66.4483 62.9784 64.8482 63.7349 63.0442C64.4914 61.2401 64.8117 59.2831 64.6698 57.3321C63.726 49.7203 57.058 47.0409 52.3235 45.7012C48.137 44.4986 45.8991 42.6565 45.8535 39.0942C45.8692 38.1148 46.121 37.1537 46.5874 36.2923C47.0539 35.431 47.7212 34.6949 48.5328 34.1465C48.7837 33.9429 49.0539 33.7645 49.3397 33.6137C50.0375 33.261 50.7802 33.0049 51.5471 32.8525C52.698 32.6065 53.8833 32.5653 55.0485 32.7307C55.7059 32.8376 56.3459 33.0321 56.9515 33.3092C57.5506 33.592 58.1172 33.9391 58.6413 34.3444C59.0828 34.6946 59.4786 35.0752 59.8896 35.4558L63.6194 31.2388C63.2845 30.9191 62.0057 29.7165 61.8382 29.6403C61.3165 29.2251 60.7615 28.8534 60.1789 28.529C59.0658 27.9306 57.8706 27.4997 56.6318 27.2502C56.0076 27.1284 55.4139 27.0676 54.7897 27.0067C53.8989 26.9152 53.0011 26.9152 52.1104 27.0067C50.9287 27.118 49.7669 27.3842 48.6546 27.7983C48.2178 27.9611 47.7908 28.1492 47.3758 28.3616C46.2152 28.878 45.1296 29.5489 44.1484 30.3559C42.7276 31.5895 41.6389 33.1597 40.9819 34.9229C40.1705 37.2239 39.9969 39.7016 40.4795 42.0932C41.0235 44.5972 42.5334 46.7855 44.6813 48.1827C45.9371 49.0622 47.291 49.7927 48.7155 50.3597C49.5071 50.6794 50.1617 50.9077 50.9077 51.1665L52.9933 51.8972C54.0944 52.2692 55.1432 52.7808 56.1142 53.4196L56.5404 53.7393C57.6758 54.5427 58.4818 55.7302 58.8092 57.0819C59.1367 58.4337 58.9635 59.8584 58.3216 61.0923C56.7992 64.6851 50.1922 66.9534 44.0419 62.706L40.8601 67.1056Z" fill="#45ad91"></path></svg> 