<?xml version="1.0" encoding="UTF-8"?> <svg xmlns="http://www.w3.org/2000/svg" width="144" height="144" viewBox="0 0 144 144" fill="none"><rect width="144" height="144" rx="72" fill="white"></rect><path d="M77.4868 34.7031H66.4531V50.093H77.4868V34.7031Z" fill="#FADCC8"></path><path d="M92.4145 51.3484V65.1676H87.3274V60.851L85.816 65.1676H58.0985L56.5871 60.851V65.1676H51.5V51.3484C51.5 48.4739 53.5349 46.0044 56.3402 45.4413L59.0566 44.8882H59.0764L62.3262 44.2263L65.3489 43.6139L66.4552 43.3867L71.9573 47.0119L77.479 43.3867L78.5854 43.6139L78.8422 43.6633L78.9509 43.6831L79.6324 43.8312L80.0868 43.93L81.5981 44.2362L84.1664 44.7598L87.5941 45.4611C90.3994 46.034 92.4145 48.4936 92.4145 51.3681V51.3484Z" fill="#324A5E"></path><path d="M60.4098 50.4279L70.999 65.1757H72.9054L82.8328 50.4377L80.6695 48.6301L84.1663 44.7382L81.598 44.2146L78.8125 43.6516L77.4789 43.375L71.967 47.0002L66.4551 43.375L65.1611 43.6318L62.336 44.2146L59.0664 44.8863L62.5731 48.6202L60.4098 50.4279Z" fill="white"></path><path d="M74.537 47.662C74.537 48.719 73.895 49.6277 72.9664 50.0229C72.6504 50.1513 72.3145 50.2303 71.9589 50.2303C71.6033 50.2303 71.2674 50.1611 70.9612 50.0327C70.0426 49.6475 69.3906 48.7288 69.3906 47.6719C69.3906 46.2495 70.5463 47.1089 71.9589 47.1089C73.3714 47.1089 74.5272 46.2495 74.5272 47.6719L74.537 47.662Z" fill="#F56C75"></path><path d="M74.5368 61.8356C74.5368 62.1715 74.5368 62.4777 74.5269 62.7642L72.9267 65.1448C72.7193 64.9472 72.5118 64.7892 72.2748 64.6904V65.1645H71.9982V65.1052C71.9982 65.1052 71.9587 65.1645 71.9389 65.1645C71.8303 65.1645 71.7809 64.6607 71.6821 64.7002C71.445 64.7891 71.2277 64.967 71.0104 65.1645L69.42 62.9617C69.42 62.6259 69.4102 62.2505 69.4102 61.8356C69.4102 60.3539 69.4595 58.9315 69.5583 57.6079C69.7954 54.1802 70.3189 51.4341 70.9808 50.0216C71.287 50.15 71.6228 50.2192 71.9784 50.2192C72.334 50.2192 72.6699 50.1401 72.986 50.0117C73.6478 51.4144 74.1615 54.1605 74.4084 57.5782C74.5072 58.9118 74.5566 60.3441 74.5566 61.8356H74.5368Z" fill="#F56C75"></path><path d="M72.9662 50.0211C72.6501 50.1495 72.3142 50.2285 71.9586 50.2285C71.603 50.2285 71.2672 50.1594 70.9609 50.031C71.2672 49.379 71.603 49.0234 71.9685 49.0234C72.334 49.0234 72.6599 49.379 72.9662 50.031V50.0211Z" fill="#F56C75"></path><path d="M72.0575 47.101V50.2225C72.0575 50.2225 72.0081 50.2225 71.9784 50.2225C71.6228 50.2225 71.287 50.1533 70.9808 50.0249C70.0621 49.6397 69.4102 48.721 69.4102 47.6641C69.4102 46.2417 70.5659 47.101 71.9784 47.101H72.0673H72.0575Z" fill="#F56C75"></path><path d="M72.0457 50.221L72.0062 64.7021V65.1762H71.6704V64.7021C71.4333 64.791 71.216 64.9688 70.9987 65.1664L69.4083 62.9636C69.4083 62.6277 69.3984 62.2524 69.3984 61.8375C69.3984 60.3558 69.4478 58.9334 69.5466 57.6196C69.7837 54.1919 70.3072 51.436 70.969 50.0234C71.2753 50.1519 71.6111 50.221 71.9667 50.221C72.0062 50.221 72.026 50.221 72.0457 50.221Z" fill="#F56C75"></path><path d="M72.0562 49.0354V50.2217C72.0562 50.2217 71.9968 50.2217 71.9672 50.2217C71.6113 50.2217 71.2752 50.1525 70.9688 50.0239C71.2752 49.3715 71.6113 49.0156 71.9771 49.0156C72.0067 49.0156 72.0364 49.0255 72.0562 49.0354Z" fill="#F56C75"></path><path opacity="0.5" d="M77.479 34.7031V43.6723L75.6318 44.591C72.0165 44.7095 69.0235 43.2278 66.4453 40.6793V34.7031H77.479Z" fill="#D87E66"></path><path d="M81.9617 25.1293V32.3402C81.9617 37.8719 77.487 42.3367 71.9652 42.3367C66.4435 42.3367 61.9688 37.862 61.9688 32.3402V25.1293C61.9688 19.6075 66.4533 15.1328 71.9652 15.1328C77.4771 15.1328 81.9617 19.5878 81.9617 25.1293Z" fill="#FADCC8"></path><path d="M83.2168 30.7617C82.8908 32.6286 81.824 34.1498 80.8263 34.1498C79.8286 34.1498 79.2755 32.6286 79.6014 30.7617C80.3719 26.2573 83.9873 26.287 83.2168 30.7617Z" fill="#FADCC8"></path><path d="M60.7147 30.7631C61.0308 32.6301 62.1075 34.1513 63.1052 34.1513C64.1029 34.1513 64.656 32.6301 64.3301 30.7631C64.0041 28.8863 62.9373 27.375 61.9396 27.375C60.9419 27.375 60.3888 28.8863 60.7147 30.7631Z" fill="#FADCC8"></path><path d="M66.4649 43.3771L71.9768 47.0023L68.3319 50.6868C68.1442 50.8744 67.838 50.8646 67.67 50.6472L62.3359 44.1969L66.4649 43.3672V43.3771Z" fill="#E7EAEF"></path><path d="M81.6273 44.2183L76.2932 50.6686C76.1253 50.8761 75.8191 50.8859 75.6314 50.7081L71.9766 47.0236L77.4983 43.3984L81.6273 44.2282V44.2183Z" fill="#E7EAEF"></path><path d="M72.9035 65.175L82.8309 50.4371L80.6676 48.6294L84.1743 44.7178L78.5833 43.6016L72.1133 65.175H72.9035Z" fill="#2B3B4E"></path><path d="M60.408 50.4272L70.9971 65.175H71.8071L65.347 43.6016L59.0547 44.8758L62.5712 48.6196L60.408 50.4272Z" fill="#2B3B4E"></path><path d="M80.9655 30.8603C80.9655 30.8011 80.9556 30.7418 80.9556 30.6924C80.9161 29.3293 80.8173 27.9859 80.5605 26.6425C79.7011 22.2171 77.4687 21.8121 75.9574 22.6419C72.6186 24.4792 68.944 23.8075 66.5535 22.1282C66.4646 22.0591 66.3955 22.0492 66.2868 22.0887C64.5582 22.8296 63.8371 24.5088 63.6988 26.4054C63.5803 28.0748 63.8174 29.7046 64.2421 31.3049C64.2816 31.4728 64.3211 31.6407 64.3409 31.8185C64.2421 31.6802 64.1433 31.5419 64.0544 31.4036C63.4914 30.5047 63.0271 29.754 62.5332 28.8255C59.5007 23.1753 62.8493 18.4437 63.0765 18.2363C63.7976 17.5745 64.6372 17.1596 65.5855 16.9621C65.7633 16.9225 65.7139 16.804 65.8325 16.6855C70.4751 11.9045 78.6442 15.994 79.4838 16.6855C80.9754 17.9005 81.3507 18.9475 81.973 19.9353C83.5634 22.4344 82.1508 28.8354 80.9754 30.8603H80.9655Z" fill="#2B3B4E"></path><path d="M42.2966 78.8684L46.1885 117.521H97.8206L101.703 78.8684L101.89 77.525L103.579 65.8789H40.4297L42.1089 77.525L42.2966 78.8684Z" fill="#FFD05B"></path><path d="M103.579 65.8789L101.89 77.525L101.703 78.8684H42.2966L42.1089 77.525L40.4297 65.8789H103.579Z" fill="#F9B54C"></path><path d="M112.774 64.4351L110.127 75.3404C110.009 75.8244 109.574 76.1602 109.07 76.1602H34.946C34.4323 76.1602 33.9977 75.8244 33.8791 75.3404L31.2318 64.4351C31.0738 63.7634 31.5874 63.1016 32.2987 63.1016H111.708C112.419 63.1016 112.932 63.7634 112.774 64.4351Z" fill="#FFD05B"></path><path d="M34.9017 100.039H27.3594V111.855H34.9017V100.039Z" fill="#FFD05B"></path><path d="M39.4827 94.2101C39.4827 79.9612 22.8008 79.9612 22.8008 94.2101C22.8008 103.329 26.5349 106.492 31.147 106.492C35.7592 106.492 39.4933 102.948 39.4933 94.2101H39.4827Z" fill="#FFD05B"></path><path d="M38.2262 98.9183C36.851 98.7596 35.9201 97.1306 36.1529 95.2794C36.3856 93.4282 37.6867 92.053 39.0619 92.2117C40.4371 92.3704 41.3679 93.9994 41.1352 95.8506C40.9025 97.7018 39.6014 99.077 38.2262 98.9183Z" fill="#FFD05B"></path><path d="M21.2779 95.8506C21.0451 93.9994 21.976 92.3704 23.3512 92.2117C24.7264 92.053 26.0275 93.4282 26.2602 95.2794C26.4929 97.1306 25.5621 98.7596 24.1869 98.9183C22.8117 99.077 21.5106 97.7018 21.2779 95.8506Z" fill="#FFD05B"></path><path d="M37.8442 102.661C37.2413 103.952 36.12 104.957 34.7659 105.359C32.2695 106.11 31.6348 108.342 30.175 106.967C27.7102 104.65 25.8908 105.708 24.4521 102.661C22.0826 97.605 18.1686 86.5507 28.0805 83.9591C30.0798 83.4407 32.2166 83.4407 34.2159 83.9591C44.1383 86.5507 40.2243 97.6156 37.8442 102.661Z" fill="#324A5E"></path><path d="M36.637 109.495C36.637 111.473 34.2887 113.081 31.3796 113.081C28.4706 113.081 26.1328 111.473 26.1328 109.495C26.1328 107.517 28.4812 106.914 31.3796 106.914C34.2781 106.914 36.637 107.517 36.637 109.495Z" fill="#E7EAEF"></path><path d="M50.9934 143.996C50.0308 139.691 47.9251 112.668 47.1317 111.833C46.2325 110.891 41.7368 109.971 39.0287 109.495C37.7382 109.273 36.4371 109.156 35.1359 109.156H27.1388C25.8271 109.156 24.5365 109.273 23.246 109.495C20.5379 109.971 16.0422 110.891 15.143 111.833C14.3496 112.668 12.2333 139.691 11.2812 143.996H50.9934Z" fill="#F56C75"></path><path d="M75.765 100.039H68.2227V111.855H75.765V100.039Z" fill="#FFD05B"></path><path d="M80.3449 94.2121C80.3449 87.4314 76.6107 83.5703 71.9986 83.5703C67.3865 83.5703 63.6523 87.4314 63.6523 94.2121C63.6523 103.331 67.3865 106.493 71.9986 106.493C76.6107 106.493 80.3449 102.95 80.3449 94.2121Z" fill="#FFD05B"></path><path d="M79.0856 98.9183C77.7104 98.7596 76.7795 97.1306 77.0122 95.2794C77.2449 93.4282 78.5461 92.053 79.9213 92.2117C81.2964 92.3704 82.2273 93.9994 81.9946 95.8506C81.7619 97.7018 80.4607 99.077 79.0856 98.9183Z" fill="#FFD05B"></path><path d="M62.1294 95.8506C61.8967 93.9994 62.8276 92.3704 64.2028 92.2117C65.5779 92.053 66.8791 93.4282 67.1118 95.2794C67.3445 97.1306 66.4136 98.7596 65.0384 98.9183C63.6633 99.077 62.3621 97.7018 62.1294 95.8506Z" fill="#FFD05B"></path><path d="M78.7075 102.665C78.1045 103.956 76.9832 104.961 75.6292 105.363C73.1327 106.114 72.498 108.346 71.0382 106.971C68.5735 104.654 66.754 105.712 65.3154 102.665C62.9459 97.6089 59.0319 86.5546 68.9437 83.963C70.943 83.4446 73.0799 83.4446 75.0791 83.963C85.0016 86.5546 81.0876 97.6195 78.7075 102.665Z" fill="#324A5E"></path><path d="M77.4886 109.499C77.4886 111.477 75.1402 113.085 72.2312 113.085C69.3222 113.085 66.9844 111.477 66.9844 109.499C66.9844 107.521 69.3328 106.918 72.2312 106.918C75.1296 106.918 77.4886 107.521 77.4886 109.499Z" fill="#E7EAEF"></path><path d="M91.845 144C90.8824 139.695 88.7766 112.672 87.9833 111.836C87.0841 110.895 82.5883 109.975 79.8803 109.499C78.5898 109.277 77.2886 109.16 75.9875 109.16H67.9903C66.6786 109.16 65.3881 109.277 64.0975 109.499C61.3895 109.975 56.8937 110.895 55.9946 111.836C55.2012 112.672 53.0849 139.695 52.1328 144H91.8556H91.845Z" fill="#84DBFF"></path><path d="M116.632 100.039H109.09V111.855H116.632V100.039Z" fill="#FFD05B"></path><path d="M121.213 94.2101C121.213 79.9612 104.531 79.9612 104.531 94.2101C104.531 103.329 108.265 106.492 112.878 106.492C117.49 106.492 121.224 102.948 121.224 94.2101H121.213Z" fill="#FFD05B"></path><path d="M119.953 98.9183C118.578 98.7596 117.647 97.1306 117.879 95.2794C118.112 93.4282 119.413 92.053 120.788 92.2117C122.164 92.3704 123.095 93.9994 122.862 95.8506C122.629 97.7018 121.328 99.077 119.953 98.9183Z" fill="#FFD05B"></path><path d="M102.997 95.8506C102.764 93.9994 103.695 92.3704 105.07 92.2117C106.445 92.053 107.746 93.4282 107.979 95.2794C108.212 97.1306 107.281 98.7596 105.906 98.9183C104.53 99.077 103.229 97.7018 102.997 95.8506Z" fill="#FFD05B"></path><path d="M119.563 102.661C118.96 103.952 117.839 104.957 116.485 105.359C113.988 106.11 113.354 108.342 111.894 106.967C109.429 104.65 107.61 105.708 106.171 102.661C103.801 97.605 99.8874 86.5507 109.799 83.9591C111.799 83.4407 113.935 83.4407 115.935 83.9591C125.857 86.5507 121.943 97.6156 119.563 102.661Z" fill="#324A5E"></path><path d="M118.356 109.495C118.356 111.473 116.007 113.081 113.098 113.081C110.189 113.081 107.852 111.473 107.852 109.495C107.852 107.517 110.2 106.914 113.098 106.914C115.997 106.914 118.356 107.517 118.356 109.495Z" fill="#E7EAEF"></path><path d="M132.712 143.996C131.75 139.691 129.644 112.668 128.85 111.833C127.951 110.891 123.456 109.971 120.747 109.495C119.457 109.273 118.156 109.156 116.855 109.156H108.858C107.546 109.156 106.255 109.273 104.965 109.495C102.257 109.971 97.7609 110.891 96.8617 111.833C96.0684 112.668 93.952 139.691 93 143.996H132.723H132.712Z" fill="#4CDBC4"></path><path d="M127.356 143.998V118.33C127.356 116.754 126.087 115.484 124.51 115.484H101.185C99.6092 115.484 98.3398 116.754 98.3398 118.33V143.998H127.356Z" fill="#324A5E"></path><path d="M127.356 118.33V119.938C127.356 118.362 126.087 117.092 124.51 117.092H101.185C99.6092 117.092 98.3398 118.362 98.3398 119.938V118.33C98.3398 116.754 99.6092 115.484 101.185 115.484H124.51C126.087 115.484 127.356 116.754 127.356 118.33Z" fill="#2B3B4E"></path><path d="M86.5045 143.998V118.33C86.5045 116.754 85.2351 115.484 83.6589 115.484H60.3338C58.7577 115.484 57.4883 116.754 57.4883 118.33V143.998H86.5045Z" fill="#324A5E"></path><path d="M86.5045 118.33V119.938C86.5045 118.362 85.2351 117.092 83.6589 117.092H60.3338C58.7577 117.092 57.4883 118.362 57.4883 119.938V118.33C57.4883 116.754 58.7577 115.484 60.3338 115.484H83.6589C85.2351 115.484 86.5045 116.754 86.5045 118.33Z" fill="#2B3B4E"></path><path d="M45.6412 143.998V118.33C45.6412 116.754 44.3718 115.484 42.7957 115.484H19.4706C17.8944 115.484 16.625 116.754 16.625 118.33V143.998H45.6412Z" fill="#324A5E"></path><path d="M45.6412 118.33V119.938C45.6412 118.362 44.3718 117.092 42.7957 117.092H19.4706C17.8944 117.092 16.625 118.362 16.625 119.938V118.33C16.625 116.754 17.8944 115.484 19.4706 115.484H42.7957C44.3718 115.484 45.6412 116.754 45.6412 118.33Z" fill="#2B3B4E"></path></svg> 