<?xml version="1.0" encoding="UTF-8"?> <svg xmlns="http://www.w3.org/2000/svg" width="144" height="144" viewBox="0 0 144 144" fill="none"><rect width="144" height="144" rx="72" fill="white"></rect><path d="M85.5 57.6C85.5 58.9255 84.4255 60 83.1 60H60.9C59.5745 60 58.5 58.9255 58.5 57.6V38.4C58.5 37.0745 57.4255 36 56.1 36H52.3456C50.742 36 49.9389 34.0611 51.0728 32.9272L70.3029 13.6971C71.2402 12.7598 72.7598 12.7598 73.6971 13.6971L92.9272 32.9272C94.0611 34.0611 93.258 36 91.6544 36H87.9C86.5745 36 85.5 37.0745 85.5 38.4V57.6Z" fill="#45AD91"></path><path d="M107.994 70.3399L100.29 76.8108L77.2046 96.2175L71.9972 100.593L66.7898 96.2175L43.7031 76.8108L36 70.3399L43.7031 64.4368L63.9575 48.9253L69.0776 45.0058C70.7975 43.6856 73.1969 43.6856 74.9168 45.0058L80.036 48.9253L100.29 64.4359L107.994 70.339V70.3399Z" fill="#40596B"></path><path d="M43.7031 51.9255V76.8113L71.9972 100.594L100.29 76.8113V51.9255C100.29 50.2686 98.9477 48.9258 97.2908 48.9258H46.7028C45.0459 48.9258 43.7031 50.2686 43.7031 51.9255Z" fill="#EBEBEB"></path><path d="M84.2422 90.3114L107.161 115.089C107.671 114.534 108 113.814 108 113.004V70.3477L84.2422 90.3114Z" fill="#FFD05C"></path><path d="M36.0039 70.3477V113.004C36.0039 113.814 36.3189 114.549 36.8436 115.104L59.762 90.3105L36.0039 70.3477Z" fill="#FFD05C"></path><path d="M59.7652 90.3086L36.8477 115.102C37.403 115.656 38.168 116.002 39.0077 116.002H105.002C105.841 116.002 106.622 115.657 107.162 115.087L84.2433 90.3095H59.7652V90.3086Z" fill="#F6B44B"></path><path d="M92.4991 64.7734H51.4944C50.5892 64.7734 49.8555 65.5072 49.8555 66.4123C49.8555 67.3175 50.5892 68.0512 51.4944 68.0512H92.4991C93.4043 68.0512 94.138 67.3175 94.138 66.4123C94.138 65.5072 93.4043 64.7734 92.4991 64.7734Z" fill="#B2B9C2"></path><path d="M85.7864 72.9922H58.0881C57.183 72.9922 56.4492 73.7259 56.4492 74.6311C56.4492 75.5362 57.183 76.27 58.0881 76.27H85.7864C86.6916 76.27 87.4253 75.5362 87.4253 74.6311C87.4253 73.7259 86.6916 72.9922 85.7864 72.9922Z" fill="#B2B9C2"></path><path d="M92.4991 56.5586H51.4944C50.5892 56.5586 49.8555 57.2924 49.8555 58.1975C49.8555 59.1026 50.5892 59.8364 51.4944 59.8364H92.4991C93.4043 59.8364 94.138 59.1026 94.138 58.1975C94.138 57.2924 93.4043 56.5586 92.4991 56.5586Z" fill="#B2B9C2"></path></svg> 